# xmcd
#
# Track frame offsets:
#   150
#   11108
#   20497
#   31308
#   42454
#   52266
#   64801
#   74321
#   84985
#   94981
#   105336
#   114876
#   127339
#   139671
#   150218
#   159968
#   171900
#   185676
#   198114
#   215432
#   226006
#   258282
#   273696
#   288197
#   304455
#   318640
#
# Disc length: 4480 seconds
#
# Revision: 0
# Processed by: cddbd v1.5.1PL2 Copyright (c) Steve Scherf et al.
# Submitted via: GXTranscoder 2.0.1939
#
DISCID=71117e1a
DTITLE=the beatles - 1962-1970
DYEAR=1900
DGENRE=Easy Listening
TTITLE0=love me do
TTITLE1=pleas please me
TTITLE2=she loves you
TTITLE3=i want to hold your hand
TTITLE4=all my loving
TTITLE5=eight days a week
TTITLE6=yesterday
TTITLE7=help
TTITLE8=you've got to hide your...
TTITLE9=we can work it out
TTITLE10=norwegian wood
TTITLE11=nowehre man
TTITLE12=michelle
TTITLE13=paperback writer
TTITLE14=eleanor rigby
TTITLE15=yellow submarine
TTITLE16=penny lane
TTITLE17=with a little help from...
TTITLE18=all you need is love
TTITLE19=lady madonna
TTITLE20=hey jude
TTITLE21=revolution
TTITLE22=ob-la-di, ob-la-da
TTITLE23=don't let me down
TTITLE24=here comes the sun
TTITLE25=let it be
EXTD=
EXTT0=
EXTT1=
EXTT2=
EXTT3=
EXTT4=
EXTT5=
EXTT6=
EXTT7=
EXTT8=
EXTT9=
EXTT10=
EXTT11=
EXTT12=
EXTT13=
EXTT14=
EXTT15=
EXTT16=
EXTT17=
EXTT18=
EXTT19=
EXTT20=
EXTT21=
EXTT22=
EXTT23=
EXTT24=
EXTT25=
PLAYORDER=
